<?xml version="1.0" encoding="utf-8"?>
<svg viewBox="0 0 500 500" xmlns="http://www.w3.org/2000/svg">
  <g id="g10" transform="matrix(1.333333, 0, 0, -1.333333, -112.766319, 840.457764)">
    <g id="g12" transform="scale(0.1)">
      <path d="M 4543.88 5295.379 L 4310.349 4400.944 C 4310.349 4400.944 4294.517 4413.804 4265.199 4434.783 C 4247.023 4447.908 4223.674 4464.125 4195.662 4482.567 C 4044.382 4606.679 3854.43 4680.447 3648.671 4680.447 C 3189.368 4680.447 2810.528 4313.183 2759.408 3839.984 C 2758.876 3837.18 2758.102 3834.665 2757.595 3832.153 C 2754.743 3820.406 2753.437 3814 2753.437 3814 C 2753.437 3814 2750.851 3836.068 2743.31 3873.241 L 2743.069 3874.933 C 2677.4 4331.07 2306.099 4680.447 1858.229 4680.447 C 1605.217 4680.447 1376.884 4569.216 1214.172 4390.044 L 1174.727 4498.786 L 897.617 5265.747 C 942.766 5257.36 1112.73 5205.927 1411.374 4895.681 C 1575.9 5079.59 1801.382 5226.883 2064.254 5320.807 C 2258.606 5390.392 2473.453 5430.635 2699.2 5435.107 L 2701.545 5435.107 C 2787.686 5436.798 2872.282 5433.173 2954.532 5424.23 C 3415.405 5376.712 3808.241 5176.584 4045.421 4886.158 L 4543.88 5295.379" style="fill: rgb(16, 15, 13); fill-opacity: 1; fill-rule: nonzero; stroke: none;" id="path16"/>
      <path d="M 1869.516 3482.635 C 1781.732 3482.661 1702.26 3520.945 1644.59 3583.037 C 1586.945 3645.155 1551.197 3731.031 1551.197 3825.971 C 1551.197 3920.935 1586.945 4006.811 1644.59 4068.927 C 1702.26 4131.02 1781.732 4169.305 1869.516 4169.329 C 1957.303 4169.305 2036.773 4131.02 2094.443 4068.927 C 2152.112 4006.811 2187.836 3920.935 2187.836 3825.971 C 2187.836 3731.031 2152.112 3645.155 2094.443 3583.037 C 2036.773 3520.945 1957.303 3482.661 1869.516 3482.635" style="fill: rgb(67, 78, 170); fill-opacity: 1; fill-rule: nonzero; stroke: none;" id="path18"/>
      <path d="M 1869.54 3470.574 L 1869.516 3470.574 C 1778.154 3470.55 1695.444 3510.48 1635.744 3574.82 C 1575.996 3639.16 1539.112 3727.986 1539.112 3825.971 C 1539.112 3923.98 1575.996 4012.804 1635.744 4077.146 C 1695.444 4141.486 1778.154 4181.414 1869.493 4181.414 L 1869.516 4181.414 C 1960.879 4181.414 2043.589 4141.486 2103.289 4077.146 C 2163.036 4012.804 2199.921 3923.98 2199.921 3825.971 L 2199.921 3825.971 L 2199.921 3825.971 L 2199.921 3825.971 C 2199.921 3727.986 2163.036 3639.16 2103.289 3574.82 C 2043.589 3510.48 1960.879 3470.574 1869.54 3470.574 M 1869.516 4169.329 C 1781.732 4169.305 1702.26 4131.02 1644.59 4068.927 C 1586.945 4006.811 1551.197 3920.935 1551.197 3825.971 C 1551.197 3731.031 1586.945 3645.155 1644.59 3583.037 C 1702.26 3520.945 1781.732 3482.661 1869.516 3482.635 C 1957.303 3482.661 2036.773 3520.945 2094.443 3583.037 C 2152.112 3645.155 2187.836 3731.031 2187.836 3825.971 C 2187.836 3920.935 2152.112 4006.811 2094.443 4068.927 C 2036.773 4131.02 1957.303 4169.305 1869.516 4169.329" style="fill: rgb(39, 38, 38); fill-opacity: 1; fill-rule: nonzero; stroke: none;" id="path20"/>
      <path d="M 3648.671 3484.636 C 3560.885 3484.636 3481.415 3522.921 3423.745 3585.015 C 3366.075 3647.131 3330.352 3733.007 3330.352 3827.971 C 3330.352 3922.911 3366.075 4008.787 3423.745 4070.903 C 3481.415 4132.996 3560.885 4171.305 3648.671 4171.305 C 3736.456 4171.305 3815.902 4132.996 3873.572 4070.903 C 3931.241 4008.787 3966.965 3922.911 3966.965 3827.971 C 3966.917 3701.562 3931.072 3616.169 3873.862 3562.052 C 3816.628 3507.96 3737.229 3484.636 3648.671 3484.636" style="fill: rgb(67, 78, 170); fill-opacity: 1; fill-rule: nonzero; stroke: none;" id="path22"/>
      <path d="M 3648.743 3472.552 C 3648.719 3472.552 3648.695 3472.552 3648.671 3472.552 C 3557.307 3472.526 3474.598 3512.456 3414.874 3576.796 C 3355.15 3641.16 3318.267 3729.962 3318.267 3827.971 C 3318.267 3925.98 3355.15 4014.78 3414.874 4079.122 C 3474.598 4143.462 3557.283 4183.39 3648.646 4183.39 L 3648.671 4183.39 C 3740.01 4183.39 3822.718 4143.462 3882.443 4079.122 C 3942.167 4014.78 3979.05 3925.98 3979.05 3827.971 L 3979.05 3827.971 L 3979.05 3827.971 L 3979.05 3827.971 C 3979.074 3699.41 3942.336 3610.127 3882.152 3553.278 C 3822.018 3496.455 3739.284 3472.552 3648.743 3472.552 M 3648.671 4171.305 C 3560.885 4171.305 3481.415 4132.996 3423.745 4070.903 C 3366.075 4008.787 3330.352 3922.911 3330.352 3827.971 C 3330.352 3733.007 3366.075 3647.131 3423.745 3585.015 C 3481.415 3522.921 3560.885 3484.636 3648.671 3484.636 C 3737.229 3484.636 3816.628 3507.96 3873.862 3562.052 C 3931.072 3616.169 3966.917 3701.562 3966.965 3827.971 C 3966.965 3922.911 3931.241 4008.787 3873.572 4070.903 C 3815.902 4132.996 3736.456 4171.305 3648.671 4171.305" style="fill: rgb(39, 38, 38); fill-opacity: 1; fill-rule: nonzero; stroke: none;" id="path24"/>
    </g>
  </g>
</svg>